<?xml version="1.0" encoding="UTF-8"?>
<svg xmlns="http://www.w3.org/2000/svg" width="55" height="56" viewBox="0 0 55 56" fill="none">
  <path d="M27.392 0.759998C19.6267 0.973331 13.1627 3.66133 8 8.824C2.88 13.944 0.213333 20.3867 0 28.152C0.213333 35.9173 2.88 42.3813 8 47.544C13.1627 52.664 19.6267 55.3307 27.392 55.544C35.1573 55.3307 41.6 52.664 46.72 47.544C51.8827 42.3813 54.5707 35.9173 54.784 28.152C54.5707 20.3867 51.8827 13.944 46.72 8.824C41.6 3.66133 35.1573 0.973331 27.392 0.759998ZM27.392 53.752C20.1387 53.5813 14.08 51.0853 9.216 46.264C4.39467 41.4 1.89867 35.3627 1.728 28.152C1.89867 20.9413 4.39467 14.904 9.216 10.04C14.08 5.176 20.1387 2.65867 27.392 2.488C34.6027 2.65867 40.6187 5.176 45.44 10.04C50.304 14.8613 52.8213 20.8987 52.992 28.152C52.8213 35.4053 50.304 41.4427 45.44 46.264C40.6187 51.0853 34.6027 53.5813 27.392 53.752ZM27.392 6.648C21.3333 6.81867 16.2773 8.93067 12.224 12.984C8.17067 16.9947 6.05867 22.0507 5.888 28.152C6.05867 34.2107 8.17067 39.2667 12.224 43.32C16.2773 47.3733 21.3333 49.4853 27.392 49.656C33.4507 49.4853 38.5067 47.3733 42.56 43.32C46.6133 39.2667 48.7253 34.2107 48.896 28.152C48.7253 22.0507 46.6133 16.9947 42.56 12.984C38.5067 8.93067 33.4507 6.81867 27.392 6.648ZM27.392 47.864C21.8027 47.736 17.1307 45.816 13.376 42.104C9.664 38.392 7.744 33.7413 7.616 28.152C7.744 22.5627 9.664 17.912 13.376 14.2C17.1307 10.4453 21.8027 8.504 27.392 8.376C32.9813 8.504 37.632 10.4453 41.344 14.2C45.056 17.912 46.976 22.5627 47.104 28.152C46.976 33.7413 45.056 38.392 41.344 42.104C37.632 45.816 32.9813 47.736 27.392 47.864ZM28.288 25.08V12.216C28.288 12.0027 28.1813 11.8107 27.968 11.64C27.7973 11.4267 27.584 11.32 27.328 11.32C27.1147 11.32 26.9227 11.4267 26.752 11.64C26.5813 11.8107 26.496 12.0027 26.496 12.216V25.08C25.8133 25.2933 25.2373 25.6773 24.768 26.232C24.3413 26.744 24.128 27.384 24.128 28.152C24.128 28.6213 24.2347 29.048 24.448 29.432L18.304 33.592C18.0907 33.72 17.9627 33.912 17.92 34.168C17.8773 34.3813 17.9413 34.616 18.112 34.872C18.2827 35.0853 18.5173 35.192 18.816 35.192C19.0293 35.192 19.2 35.1493 19.328 35.064L25.6 30.776C26.112 31.1173 26.7093 31.3093 27.392 31.352C28.3307 31.3093 29.0987 30.9893 29.696 30.392C30.2933 29.7947 30.592 29.048 30.592 28.152C30.592 27.384 30.3787 26.744 29.952 26.232C29.5253 25.6773 28.9707 25.2933 28.288 25.08ZM27.392 29.624C26.9653 29.624 26.6027 29.4747 26.304 29.176C26.048 28.8773 25.92 28.536 25.92 28.152C25.92 27.7253 26.048 27.384 26.304 27.128C26.6027 26.8293 26.944 26.68 27.328 26.68C27.7547 26.68 28.1173 26.8293 28.416 27.128C28.7147 27.384 28.864 27.7253 28.864 28.152C28.864 28.536 28.7147 28.8773 28.416 29.176C28.1173 29.4747 27.776 29.624 27.392 29.624Z" fill="white"></path>
</svg>
