<?xml version="1.0" encoding="UTF-8"?>
<svg xmlns="http://www.w3.org/2000/svg" width="261" height="44" viewBox="0 0 261 44" fill="none">
  <rect y="5" width="18" height="39" fill="#222222"></rect>
  <path d="M8.28 11.7H9.9V36H8.28V11.7Z" fill="white"></path>
  <path d="M23.4316 11.7H24.7216L32.9716 32.22V11.7H34.4116V36H33.1216L24.8716 15.45V36H23.4316V11.7ZM47.8711 11.7H49.1611L57.4111 32.22V11.7H58.8511V36H57.5611L49.3111 15.45V36H47.8711V11.7ZM77.8005 36.33C75.5805 36.33 74.0205 35.7 73.1205 34.44C72.2405 33.16 71.8005 31.38 71.8005 29.1V18.48C71.8005 16.24 72.2505 14.51 73.1505 13.29C74.0705 12.05 75.6205 11.43 77.8005 11.43C79.9605 11.43 81.5005 12.05 82.4205 13.29C83.3405 14.53 83.8005 16.26 83.8005 18.48V29.13C83.8005 31.41 83.3505 33.18 82.4505 34.44C81.5705 35.7 80.0205 36.33 77.8005 36.33ZM77.8005 34.98C79.4405 34.98 80.5705 34.51 81.1905 33.57C81.8305 32.63 82.1505 31.26 82.1505 29.46V18.24C82.1505 16.44 81.8305 15.08 81.1905 14.16C80.5705 13.24 79.4405 12.78 77.8005 12.78C76.1605 12.78 75.0205 13.24 74.3805 14.16C73.7605 15.08 73.4505 16.44 73.4505 18.24V29.46C73.4505 31.28 73.7605 32.66 74.3805 33.6C75.0205 34.52 76.1605 34.98 77.8005 34.98ZM97.1993 11.7H98.8193L103.949 33.63L109.169 11.7H110.849L111.539 36H110.129L109.529 15.63L104.579 36H103.379L98.4893 15.66L97.8893 36H96.4793L97.1993 11.7ZM124.704 11.7H133.104V13.02H126.354V22.77H131.904V24.03H126.354V34.71H133.194V36H124.704V11.7ZM145.512 11.7H151.392C153.392 11.7 154.782 12.23 155.562 13.29C156.342 14.35 156.732 15.82 156.732 17.7C156.732 19.28 156.472 20.58 155.952 21.6C155.452 22.62 154.522 23.24 153.162 23.46L157.062 36H155.442L151.662 23.76H147.132V36H145.512V11.7ZM151.332 22.5C152.792 22.5 153.792 22.11 154.332 21.33C154.872 20.53 155.142 19.32 155.142 17.7C155.142 16.06 154.862 14.87 154.302 14.13C153.762 13.37 152.762 12.99 151.302 12.99H147.132V22.5H151.332ZM175.146 36.33C172.926 36.33 171.386 35.69 170.526 34.41C169.666 33.11 169.236 31.31 169.236 29.01V18.69C169.236 16.39 169.676 14.61 170.556 13.35C171.436 12.07 172.966 11.43 175.146 11.43C177.166 11.43 178.596 12.02 179.436 13.2C180.276 14.36 180.696 16.05 180.696 18.27V19.5H179.136V18.27C179.136 16.41 178.846 15.03 178.266 14.13C177.686 13.23 176.646 12.78 175.146 12.78C173.506 12.78 172.386 13.26 171.786 14.22C171.186 15.18 170.886 16.61 170.886 18.51V29.25C170.886 31.17 171.196 32.61 171.816 33.57C172.436 34.51 173.546 34.98 175.146 34.98C176.666 34.98 177.706 34.52 178.266 33.6C178.846 32.66 179.136 31.28 179.136 29.46V27.99H180.696V29.19C180.696 31.47 180.286 33.23 179.466 34.47C178.646 35.71 177.206 36.33 175.146 36.33ZM193.394 11.7H201.794V13.02H195.044V22.77H200.594V24.03H195.044V34.71H201.884V36H193.394V11.7Z" fill="#222222"></path>
</svg>
