<?xml version="1.0" encoding="UTF-8"?>
<svg xmlns="http://www.w3.org/2000/svg" width="63" height="61" viewBox="0 0 63 61" fill="none">
  <path d="M62.528 15.944C62.4 11.592 60.864 7.96533 57.92 5.064C55.0187 2.12 51.3707 0.583998 46.976 0.455997C43.9467 0.498664 41.2373 1.288 38.848 2.824C36.5013 4.31733 34.6453 6.32266 33.28 8.84L0.64 19.912C0.426667 19.9973 0.256 20.1467 0.128 20.36C0.0426667 20.5733 0.0426667 20.808 0.128 21.064C0.298667 21.4053 0.576 21.5973 0.96 21.64C1.04533 21.64 1.13067 21.6187 1.216 21.576L32.384 11.016C31.8293 12.5947 31.5307 14.2373 31.488 15.944C31.488 17.9493 31.8293 19.8267 32.512 21.576C33.2373 23.3253 34.2187 24.8827 35.456 26.248L16.896 44.808C16.7253 44.9787 16.64 45.192 16.64 45.448C16.64 45.6613 16.7253 45.8533 16.896 46.024C17.0667 46.1947 17.28 46.28 17.536 46.28C17.792 46.28 18.0053 46.216 18.176 46.088L36.736 27.464C38.144 28.744 39.7013 29.7467 41.408 30.472C43.1573 31.1547 45.0133 31.496 46.976 31.496C48.5547 31.4533 50.0693 31.1973 51.52 30.728L36.288 59.336C36.1173 59.848 36.2453 60.2533 36.672 60.552C36.8 60.5947 36.928 60.616 37.056 60.616C37.3973 60.616 37.6747 60.4667 37.888 60.168L54.016 29.768C54.016 29.7253 54.016 29.704 54.016 29.704C56.576 28.3813 58.624 26.5253 60.16 24.136C61.696 21.704 62.4853 18.9733 62.528 15.944ZM46.976 29.704C45.2267 29.704 43.584 29.4053 42.048 28.808C40.5547 28.168 39.1893 27.3147 37.952 26.248L47.872 16.392C48.0427 16.1787 48.128 15.9653 48.128 15.752C48.128 15.496 48.0427 15.2827 47.872 15.112C47.4453 14.7707 47.0187 14.7707 46.592 15.112L36.736 24.968C35.6693 23.7307 34.816 22.3653 34.176 20.872C33.5787 19.336 33.28 17.6933 33.28 15.944C33.3653 12.0613 34.688 8.84 37.248 6.28C39.8507 3.67733 43.0933 2.33333 46.976 2.248C50.9013 2.33333 54.144 3.67733 56.704 6.28C59.3067 8.84 60.6507 12.0613 60.736 15.944C60.6507 19.8693 59.3067 23.1333 56.704 25.736C54.144 28.296 50.9013 29.6187 46.976 29.704Z" fill="white"></path>
</svg>
