<?xml version="1.0" encoding="UTF-8"?>
<svg xmlns="http://www.w3.org/2000/svg" width="62" height="57" viewBox="0 0 62 57" fill="none">
  <path d="M16.384 25.784C20.0107 25.6987 23.0187 24.4613 25.408 22.072C27.84 19.64 29.0987 16.6107 29.184 12.984C29.184 11.2773 28.864 9.656 28.224 8.12C27.584 6.54133 26.6453 5.15467 25.408 3.96C24.1707 2.72266 22.784 1.784 21.248 1.144C19.712 0.503998 18.0907 0.183998 16.384 0.183998C14.6773 0.183998 13.0347 0.503998 11.456 1.144C9.92 1.784 8.53333 2.72266 7.296 3.96C6.10133 5.15467 5.184 6.54133 4.544 8.12C3.904 9.656 3.584 11.2773 3.584 12.984C3.584 14.6907 3.904 16.312 4.544 17.848C5.184 19.384 6.10133 20.7707 7.296 22.008C8.53333 23.2453 9.92 24.184 11.456 24.824C13.0347 25.464 14.6773 25.784 16.384 25.784ZM16.384 2.04C19.456 2.12533 22.016 3.21333 24.064 5.304C26.1547 7.352 27.2427 9.912 27.328 12.984C27.2427 16.056 26.1547 18.6373 24.064 20.728C22.016 22.776 19.456 23.8427 16.384 23.928C13.312 23.8427 10.7307 22.776 8.64 20.728C6.592 18.6373 5.52533 16.056 5.44 12.984C5.52533 9.912 6.592 7.352 8.64 5.304C10.7307 3.21333 13.312 2.12533 16.384 2.04ZM32.128 34.872C32 31.7147 30.848 28.6213 28.672 25.592C28.544 25.3787 28.3307 25.272 28.032 25.272C27.776 25.2293 27.5413 25.2933 27.328 25.464C25.7493 26.872 24.0213 27.96 22.144 28.728C20.3093 29.4533 18.368 29.816 16.32 29.816C14.3147 29.816 12.3733 29.4533 10.496 28.728C8.66133 27.96 6.976 26.872 5.44 25.464C5.22667 25.2933 4.992 25.2293 4.736 25.272C4.48 25.272 4.26667 25.3787 4.096 25.592C1.87733 28.6213 0.725333 31.7147 0.64 34.872L0 55.224C0.0426667 55.48 0.149333 55.6933 0.32 55.864C0.490667 56.0773 0.704 56.184 0.96 56.184H31.808C32.064 56.184 32.2773 56.0987 32.448 55.928C32.6613 55.7573 32.768 55.544 32.768 55.288L32.128 34.872ZM17.024 31.864L18.88 46.52H13.888L15.744 31.864H17.024ZM1.92 54.328L2.496 34.936C2.58133 32.4187 3.41333 29.944 4.992 27.512C6.44267 28.7493 8.02133 29.688 9.728 30.328C11.0933 30.8827 12.48 31.2667 13.888 31.48L11.904 47.352C11.8613 47.608 11.9253 47.8427 12.096 48.056C12.2667 48.2693 12.5013 48.376 12.8 48.376H19.904C20.16 48.376 20.3733 48.2907 20.544 48.12C20.7573 47.9493 20.864 47.736 20.864 47.48V47.288L18.816 31.48C20.3093 31.2667 21.7173 30.8827 23.04 30.328C24.7467 29.688 26.3253 28.7493 27.776 27.512C29.3547 29.944 30.1867 32.4187 30.272 34.936L30.848 54.328H1.92ZM48.256 31.288C51.2853 31.2027 53.8027 30.1573 55.808 28.152C57.8133 26.1467 58.8587 23.6293 58.944 20.6C58.8587 17.5707 57.8133 15.0533 55.808 13.048C53.8027 11.0427 51.2853 9.99733 48.256 9.912C45.2267 9.99733 42.7093 11.0427 40.704 13.048C38.6987 15.0533 37.6533 17.5707 37.568 20.6C37.6533 23.6293 38.6987 26.1467 40.704 28.152C42.7093 30.1573 45.2267 31.2027 48.256 31.288ZM48.256 11.768C50.7733 11.8107 52.864 12.664 54.528 14.328C56.192 15.992 57.0453 18.0827 57.088 20.6C57.0453 23.0747 56.192 25.144 54.528 26.808C52.864 28.472 50.7733 29.3467 48.256 29.432C45.7813 29.3467 43.712 28.472 42.048 26.808C40.384 25.144 39.5093 23.0747 39.424 20.6C39.5093 18.0827 40.384 15.992 42.048 14.328C43.712 12.664 45.7813 11.8107 48.256 11.768ZM61.888 55.352L61.376 38.648C61.248 35.96 60.288 33.3787 58.496 30.904C58.368 30.648 58.1547 30.52 57.856 30.52C57.6 30.52 57.344 30.6053 57.088 30.776C55.8507 31.928 54.464 32.8027 52.928 33.4C51.4347 33.9973 49.856 34.296 48.192 34.296C46.5707 34.296 44.992 33.9973 43.456 33.4C41.9627 32.76 40.5973 31.8853 39.36 30.776C39.1467 30.6053 38.8907 30.5413 38.592 30.584C38.336 30.584 38.1227 30.6907 37.952 30.904C36.16 33.3787 35.2213 35.96 35.136 38.648L34.624 55.352C34.624 55.608 34.7093 55.8213 34.88 55.992C35.0507 56.2053 35.264 56.312 35.52 56.312H60.928C61.184 56.312 61.3973 56.2267 61.568 56.056C61.7813 55.8853 61.888 55.672 61.888 55.416C61.888 55.3733 61.888 55.352 61.888 55.352ZM47.872 36.28H48.64L50.112 48.056H46.336L47.872 36.28ZM36.48 54.456L36.992 38.712C37.0773 36.664 37.7173 34.7013 38.912 32.824C41.0453 34.488 43.4133 35.5333 46.016 35.96L44.352 48.888C44.352 49.144 44.4373 49.3787 44.608 49.592C44.8213 49.8053 45.056 49.912 45.312 49.912H51.136C51.392 49.912 51.6053 49.8267 51.776 49.656C51.9893 49.4427 52.096 49.208 52.096 48.952L50.432 35.96C51.6267 35.832 52.736 35.5333 53.76 35.064C55.168 34.5093 56.4267 33.7627 57.536 32.824C58.816 34.7013 59.4773 36.664 59.52 38.712L59.968 54.456H36.48Z" fill="white"></path>
</svg>
